<?xml version="1.0" encoding="iso-8859-1"?>
<!-- Uploaded to: SVG Repo, www.svgrepo.com, Generator: SVG Repo Mixer Tools -->
<!DOCTYPE svg PUBLIC "-//W3C//DTD SVG 1.1//EN" "http://www.w3.org/Graphics/SVG/1.1/DTD/svg11.dtd">
<svg fill="#000000" height="800px" width="800px" version="1.1" id="Capa_1" xmlns="http://www.w3.org/2000/svg" xmlns:xlink="http://www.w3.org/1999/xlink" 
	 viewBox="0 0 197.667 197.667" xml:space="preserve">
<path d="M188.583,146.142v44.025c0,4.142-3.357,7.5-7.5,7.5h-164.5c-4.142,0-7.5-3.358-7.5-7.5v-44.025
	c0-16.349,11.019-30.763,26.796-35.05l35.933-9.765c3.286-0.894,6.76,0.539,8.462,3.487l18.559,32.144l18.559-32.144
	c1.702-2.948,5.18-4.378,8.462-3.487l35.933,9.765C177.564,115.379,188.583,129.792,188.583,146.142z M98.833,0
	C77.722,0,60.547,20.479,60.547,45.652c0,25.172,17.175,45.652,38.287,45.652s38.286-20.479,38.286-45.652
	C137.12,20.479,119.945,0,98.833,0z"/>
</svg>